<svg xmlns="http://www.w3.org/2000/svg" viewBox="0 0 500 500">
  <defs/>
  <defs>
    <linearGradient id="a" x1="369.9" x2="377.7" y1="379.1" y2="479.1" gradientTransform="matrix(1 0 0 -1 -48 672.1)" gradientUnits="userSpaceOnUse">
      <stop offset="0" stop-color="#00d15e"/>
      <stop offset="1"/>
    </linearGradient>
    <linearGradient id="b" x1="173.2" x2="174.3" y1="359" y2="437.8" gradientTransform="matrix(1 0 0 -1 -48 672.1)" gradientUnits="userSpaceOnUse">
      <stop offset="0" stop-color="#00d15e"/>
      <stop offset="1"/>
    </linearGradient>
  </defs>
  <path fill="#dfdfdf" d="M0 0h500v500H0z"/>
  <path fill="#010202" d="M287.2 258.9s12.6-22.8 33.7-24c21-1 40.6.5 54.1 18.7l13.5-2.7s-23.7-19.5-40.3-19.5c-16.6 0-50-2.6-55.9 10.9-5.8 13.5-9.7 19.7-9.7 19.7l4.6-3z"/>
  <path fill="url(#a)" d="M346.6 261.9a22.3 22.3 0 10-44.6 0 22.3 22.3 0 0044.6 0"/>
  <path fill="#010202" d="M334.8 261.6a11.3 11.3 0 10-22.6 0 11.3 11.3 0 0022.6 0"/>
  <path fill="#fff" d="M333.5 247.2c-2.4.6-2.9 4.2-1 6.3 1.2 1.2 2.7 1.6 3.9.9 2.4-.6 3-4.2 1-6.3-1.1-1.2-2.7-1.6-3.9-.9"/>
  <path fill="#010202" d="M375 253.6v.4c-1.1 4.2-11 37.6-67 31.5 0 0 50.2 9.6 67-31.9z"/>
  <path fill="#010202" d="M375 265.6s-11.7 24.1-51.6 24.6c0 0 32.6 1.5 51.6-24.6z"/>
  <path fill="#010202" d="M347.8 286.1s1.8 1.3 2.7 4.4c0 0-.6-4.4-2-4.7l-.7.3zm3.2-1a8 8 0 002.7 4.3s-.6-4.3-2-4.7l-.6.4zm4.3-2s1.8 1.3 2.7 4.4c0 0-.6-4.4-2-4.8l-.7.4zm25.7-47.5s-73.6-11.2-97.2 3.8c-23.6 15-43 44.3-26.7 56.8 0 0-23.2-27.5 39.6-59.8 0 0 60.2-7.7 84.2-.8zm-143.8-18.7s-.9 14 4.1 13.2c5-.8 74-30.7 108.9-30.7 34.8 0 54.8 2.5 87.2 20.8 0 0-54-35.8-73-35.8-19.2 0-116.4 20.8-127.2 32.5z"/>
  <path fill="#010202" d="M293 281.5s-7-3-7-5.4c0 0 1.3 7.5 7 5.4z"/>
  <path fill="url(#b)" d="M147 284.4c0-16.2-18-26.3-32.2-18.2a21 21 0 00-10.8 18.2c0 16.2 18 26.3 32.3 18.2a21 21 0 0010.7-18.2"/>
  <path fill="#010202" d="M137.4 284.4a12.5 12.5 0 00-25 0 12.5 12.5 0 0025 0"/>
  <path fill="#fff" d="M133 268.4c-2 1.5-1 5.1 1.6 6.6 1.2.6 2.5.6 3.4-.1 2-1.5 1.1-5.1-1.5-6.6-1.3-.6-2.6-.6-3.5.1"/>
  <path fill="#010202" d="M92.8 292.7s-10.3-15.1 5-27c15.1-11.9 40.2-9.7 68.4 14.9 0 0-17.2-31.9-66.4-24.6 0 0-32.2 20.3-7 36.7z"/>
  <path fill="#010202" d="M171.7 271.1s-16.4-12.3-41-15c-24.6-2.7-43.3-.7-52.4 9.3 0 0 35.5-23 93.4 5.8zm-73 30.4s10.2 15.2 49.9 1.2c0 0-39 16.1-50-1.2z"/>
  <path fill="#010202" d="M130.8 310.6s-22.2 5.8-32.5-4c0 0 9 8 32.4 4zm30.6-17s-1 4.9-4.6 4.9c0 0 5.2-3 4.6-4.9z"/>
  <path fill="#010202" d="M100.6 308.5l-3.9 2.7s4.5-1.6 4.8-2c.3-.5 0-.8-.9-.7zm4.1 1.6l-4 2.8s4.5-1.6 4.8-2c.3-.5.1-.8-.8-.7zm4.1 1.1l-4 2.8s4.5-1.6 4.8-2c.3-.4.1-.8-.8-.7zm4.2.9l-3 3.5s4-2.5 4-3c.1-.5 0-.9-1-.5zm57.2-65.2s-28.7-26.3-92-24.4c0 0-15 11.8-15.6 15.6-.6 3.8 27.5-15.6 101.4 10.6 0 0 5.6 2.5 6.2-1.8z"/>
</svg>
