<svg xmlns="http://www.w3.org/2000/svg" viewBox="0 0 1573 1080">
  <defs/>
  <path fill="#fff" fill-opacity=".9" d="M86.9 57.7h690v340.5h-690zM86 414.2h690v250H86z"/>
  <path fill="#333" d="M117.6 366.3v-52.8l8.2-2.4v55.2h-8.2zm28.2.7c-1.5 0-2.7-.5-3.8-1.5a5 5 0 01-1.5-3.6 5 5 0 011.5-3.8 5 5 0 013.8-1.5 5 5 0 013.7 1.5 5 5 0 011.5 3.8 5 5 0 01-1.5 3.6 5 5 0 01-3.7 1.5zm34.2-.7v-53.6h13c10.7 0 18.3 2.5 22.6 7.6a27.4 27.4 0 016.5 18.3c0 4.9-1 9.4-2.8 13.6-1.9 4.2-5 7.6-9.2 10.2-4.2 2.6-9.8 4-16.7 4H180zm8.2-7.2h6c6.8 0 11.6-2 14.7-5.7 3-3.9 4.5-8.7 4.5-14.5 0-5.6-1.5-10.2-4.6-13.8-3-3.5-7.9-5.3-14.6-5.3h-6v39.3zm41.3 7.2v-33.5h7.9v6.6c.8-2.3 2-4 3.8-5.4 1.7-1.4 3.7-2 6-2 1.5 0 2.6 0 3.2.4l-1.1 8c-.5-.4-1.4-.5-2.9-.5a10 10 0 00-6.2 2.2c-1.9 1.4-2.8 3.8-2.8 7v17.2h-7.9zm42 .7c-3.4 0-6.5-.7-9.1-2.3a16.1 16.1 0 01-6.3-6.3 18.3 18.3 0 01-2.1-9c0-3.2.7-6.1 2.1-8.8a16 16 0 016.2-6.3c2.7-1.6 5.7-2.4 9.2-2.4 3.6 0 6.6.8 9.3 2.4a16 16 0 016.1 6.3c1.4 2.7 2.2 5.6 2.2 8.9 0 3.2-.8 6.2-2.2 8.9a16.2 16.2 0 01-6.2 6.3 17.8 17.8 0 01-9.2 2.3zm.3-6.4c2.8 0 5-1 6.6-3.1 1.7-2.1 2.5-4.7 2.5-7.9s-.9-5.8-2.6-8a8.5 8.5 0 00-7-3.2 8 8 0 00-6.6 3.2 12.6 12.6 0 00-2.6 8c0 3.1 1 5.7 2.7 7.8a8.7 8.7 0 007 3.2zm25.8 23.5v-51.3h7.6v6.2c2.7-4.7 6.9-7 12.6-7 4.7 0 8.5 1.4 11.4 4.4 3 3 4.4 7.3 4.4 13 0 3.5-.7 6.6-2.2 9.3a15.6 15.6 0 01-14 8.3c-2.8 0-5.3-.5-7.3-1.5-2.1-1-3.7-2.4-4.9-4.2V384h-7.6zm18-23.7a9 9 0 007.3-3c1.7-2 2.5-4.6 2.5-7.8 0-3.3-.8-6-2.5-8-1.7-1.9-4.1-2.9-7.3-2.9a10 10 0 00-5 1.3c-1.5.9-2.7 2-3.6 3.6a11 11 0 00-1.4 5.6v.5c0 2 .5 4 1.4 5.6a9.5 9.5 0 008.6 5.1zm47.2 6v-27.2h-6v-6.4h6v-13.6l8-1.8v15.4h7.7v6.4h-7.7v27.1h-8zm52.5 0l-10-18.7-9.9 18.6H394l-14-33.5h8.4l7.2 19.5 9.6-19.5h.3l9.6 19.4 7.3-19.4h8.3l-14 33.5h-1.4zm35.5.6c-3.4 0-6.5-.7-9.2-2.3a16.1 16.1 0 01-6.2-6.3 18.3 18.3 0 01-2.2-9c0-3.2.8-6.1 2.2-8.8a16 16 0 016.2-6.3c2.6-1.6 5.7-2.4 9.2-2.4 3.5 0 6.6.8 9.3 2.4a16 16 0 016.1 6.3c1.4 2.7 2.2 5.6 2.2 8.9 0 3.2-.8 6.2-2.2 8.9a16.2 16.2 0 01-6.2 6.3 17.8 17.8 0 01-9.2 2.3zm.3-6.4c2.8 0 5-1 6.6-3.1 1.7-2.1 2.5-4.7 2.5-7.9s-.9-5.8-2.6-8a8.5 8.5 0 00-7-3.2 8 8 0 00-6.7 3.2 12.6 12.6 0 00-2.5 8c0 3.1 1 5.7 2.7 7.8a8.7 8.7 0 007 3.2zm44.1 5.7v-33.5h8.2v33.5h-8.2zm4-39.8c-1.5 0-2.7-.5-3.8-1.5-1-1-1.5-2.3-1.5-3.8 0-1.4.5-2.5 1.5-3.5s2.3-1.5 3.8-1.5 2.7.5 3.8 1.5c1 1 1.5 2.1 1.5 3.5a5.2 5.2 0 01-5.3 5.3zm15.1 39.8v-33.5h8v6c1-2.2 2.6-4 4.6-5.1 2.1-1.2 4.5-1.8 7.2-1.8 6 0 9.6 2.2 11 6.2 1-1.9 2.7-3.4 4.8-4.5 2.1-1.1 4.4-1.7 6.8-1.7 3.5 0 6.1.7 8 2 1.7 1.4 3 3.3 3.6 5.7.6 2.5.9 5.8.9 10v16.7h-8v-16.8c0-4-.4-6.8-1.2-8.5-.8-1.7-2.3-2.6-4.6-2.6-3 0-5.4 1-7 3.1a13 13 0 00-2.4 8.2v16.6h-7.9v-18c0-2.6 0-4.5-.2-5.8a4.6 4.6 0 00-1.7-3c-.8-.7-2.2-1-4.2-1-1.7 0-3.3.4-4.8 1.5-1.5 1-2.6 2.4-3.5 4a12 12 0 00-1.4 5.7v16.6h-8zm79.8.7a16.2 16.2 0 01-14.5-8.3 18.2 18.2 0 01-2.3-9.2c0-3.5.6-6.6 2-9.2 1.3-2.7 3.2-4.7 5.7-6.2a17 17 0 0114.2-1.1c1.8.6 3.2 1.5 4.4 2.5 1.1 1 1.9 2 2.3 3l.1-5.7h7.6v33.5H606l-.1-5.9c-.9 1.8-2.4 3.3-4.6 4.6-2.1 1.4-4.6 2-7.3 2zm1.3-6.5c2.8 0 5-1 7-2.9 1.9-2 2.8-4.4 2.8-7.6v-.5c0-2-.4-4-1.3-5.6-.9-1.6-2-3-3.6-3.9a9.3 9.3 0 00-5-1.4 9 9 0 00-7.1 3c-1.8 2.1-2.6 4.7-2.6 8 0 3.2.8 5.8 2.5 7.8s4.1 3 7.3 3zm45 23.3c-2.5 0-4.9-.3-7.3-1-2.4-.7-4.1-1.3-5.2-1.9l1.8-7.3c3.2 2.1 6.7 3.2 10.5 3.2 3 0 5.4-.7 7.4-2.2 2-1.4 3-4.1 3-8.2v-6a12 12 0 01-5 4.7 15.4 15.4 0 01-7.5 2 15.3 15.3 0 01-13.8-8.3 19.8 19.8 0 01-2.1-9.4c0-3.4.6-6.5 2-9.1 1.3-2.7 3.2-4.7 5.7-6.2a16.8 16.8 0 0118.5 1.4c1.2 1 2 2 2.4 3l.1-5.7h7.5v33.3c0 5.7-1.5 10-4.4 13.1-3 3.1-7.4 4.6-13.6 4.6zm-.1-23.4c2.8 0 5-1 7-2.9 1.9-1.9 2.8-4.4 2.8-7.5v-.5c0-2.1-.4-4-1.3-5.7-.9-1.6-2-3-3.6-3.8a9.3 9.3 0 00-5-1.4 9 9 0 00-7.2 3c-1.7 2-2.5 4.6-2.5 7.9 0 3.2.8 5.9 2.5 7.9s4.1 3 7.3 3zm44 6.6c-4 0-7.3-.7-10-2.3a14.6 14.6 0 01-6-6.4 20 20 0 01-1.8-8.7c0-3.6.7-6.7 2.2-9.3 1.5-2.7 3.5-4.8 6.2-6.2 2.6-1.4 5.6-2.2 8.9-2.2 5.1 0 9 1.5 11.5 4.3 2.5 2.9 3.7 6.9 3.7 12 0 1.3 0 2.7-.2 4.1h-24c.5 3 1.5 5.1 3.1 6.4a10 10 0 006.6 2 18.8 18.8 0 0010-2.2l2.3 5.6c-1.2.8-2.8 1.5-5 2-2 .7-4.5 1-7.5 1zm-9.6-20.2h16.7c0-3-.6-5.1-2-6.4-1.4-1.2-3.3-1.8-5.8-1.8-5.1 0-8 2.7-8.9 8.2zm44.1 20.2c-2.3 0-4.7-.3-7.2-.9-2.6-.6-4.3-1.3-5.4-2.1l2.6-6.2c3 2 6.3 3 10 3 3.8 0 5.6-1 5.6-3.2 0-1-.3-1.8-1.1-2.3-.8-.5-2.2-1.2-4.2-1.9l-2.8-1c-2.9-1.2-5.2-2.6-6.9-4.2a8.5 8.5 0 01-2.5-6.5c0-3 1.2-5.4 3.6-7.2 2.4-1.7 5.6-2.6 9.6-2.6 2 0 4 .3 6 .7 1.8.4 3.3 1 4.3 1.7l-2.8 6.2a7.7 7.7 0 00-3-1.6c-1.4-.5-3-.7-4.7-.7-3.4 0-5.2 1-5.2 3.1 0 1.2.5 2.1 1.4 2.7a22 22 0 004.5 2l2.3.8c3.1 1.2 5.4 2.6 7 4.2a8.3 8.3 0 012.2 6c0 3.3-1.2 5.8-3.8 7.5a16.6 16.6 0 01-9.5 2.5zM113.4 512.3l18-22.5c2.3-3.1 4.2-6 5.7-8.6 1.6-2.6 2.3-5 2.3-7.3 0-2.7-.7-4.8-2.1-6.2-1.5-1.5-3.6-2.2-6.5-2.2a9 9 0 00-6.3 2.2c-1.6 1.5-3 3.3-4 5.3l-6.9-3.6c1.8-3.3 4-6 6.8-8.3 2.7-2.2 6.3-3.3 10.6-3.3 5.4 0 9.6 1.4 12.4 4.2 3 2.8 4.3 6.4 4.3 11 0 5.9-2.9 12.4-8.7 19.5l-10 12.6H150v7.2h-36.5zm52.5.7c-1.4 0-2.7-.5-3.7-1.5a5 5 0 01-1.5-3.6 5 5 0 011.5-3.8 5 5 0 013.7-1.5 5 5 0 013.8 1.5 5 5 0 011.5 3.8 5 5 0 01-1.5 3.6 5 5 0 01-3.8 1.5zm46.6 0c-3 0-5.8-.5-8.7-1.5a17 17 0 01-6.2-3.4l3.9-7c1 1 2.6 2 4.8 3 2.1 1 4.2 1.4 6.2 1.4 2.6 0 4.7-.6 6.3-1.8a6 6 0 002.5-5c0-1.7-.5-3.1-1.4-4.3-.8-1.3-2-2.3-3.2-3-1.2-.9-3-1.9-5.4-3a58.3 58.3 0 01-5.7-3 15 15 0 01-7-13.2c0-4.7 1.5-8.2 4.6-10.7 3-2.4 6.9-3.6 11.6-3.6 5 0 9.2 1.4 12.7 4.3l-3.8 6.6a13.7 13.7 0 00-9.3-3.6 9 9 0 00-5.7 1.7c-1.4 1-2.1 2.7-2.1 4.8 0 1.5.4 2.9 1.3 4a13 13 0 003.3 3.2c1.4.9 3.2 2 5.5 3.2l5 2.9a19 19 0 016.7 7c.9 1.8 1.3 3.7 1.3 5.8 0 3.2-.7 6-2.2 8.3-1.5 2.3-3.5 4-6.1 5.2a21.5 21.5 0 01-9 1.7zm26.1-.7v-53.6h7.8v53.6h-7.8zm19.5 0v-33.5h8.2v33.5H258zm4-39.8c-1.5 0-2.7-.5-3.8-1.5-1-1-1.5-2.3-1.5-3.8 0-1.4.5-2.5 1.5-3.5s2.3-1.5 3.8-1.5 2.7.5 3.8 1.5c1 1 1.5 2.1 1.5 3.5a5.2 5.2 0 01-5.3 5.3zm30 40.5a16.2 16.2 0 01-14.5-8.3 18.2 18.2 0 01-2.3-9.2 18 18 0 014.4-12.8c3-3.2 7-4.8 12-4.8 2.9 0 5.5.7 7.8 2.1 2.3 1.4 4 3 4.8 5l-.4-5.7v-20.6h7.7v53.6h-7.5l-.1-5.9c-.9 1.8-2.4 3.3-4.6 4.6-2.2 1.4-4.6 2-7.3 2zm1.3-6.6c2.8 0 5-1 7-2.9 1.9-1.9 2.8-4.4 2.8-7.5v-.5c0-2.1-.4-4-1.3-5.7-.9-1.6-2-3-3.6-3.8a9.3 9.3 0 00-5-1.4 9 9 0 00-7.1 3c-1.8 2-2.6 4.6-2.6 7.9 0 3.2.8 5.9 2.5 7.9s4.1 3 7.3 3zm44.5 6.6c-4 0-7.3-.7-10-2.3a14.6 14.6 0 01-6-6.4 20 20 0 01-1.8-8.7c0-3.6.7-6.7 2.2-9.3 1.5-2.7 3.6-4.8 6.2-6.2 2.6-1.4 5.6-2.2 8.9-2.2 5.2 0 9 1.5 11.5 4.3 2.5 2.9 3.8 6.9 3.8 12l-.3 4.1h-24c.5 3 1.5 5.1 3.1 6.4a10 10 0 006.6 2 18.8 18.8 0 0010-2.2l2.4 5.6c-1.3.8-3 1.5-5 2-2 .7-4.6 1-7.6 1zm-9.6-20.2H345c0-3-.6-5.1-2-6.4-1.3-1.2-3.3-1.8-5.8-1.8-5.1 0-8 2.7-8.9 8.2zm53.4 19.5v-27h-5.9v-6.5h6v-13.6l7.9-1.8v15.4h7.7v6.4h-7.7v27.1h-8zm37.7.7c-3.4 0-6.5-.7-9.1-2.3a16.1 16.1 0 01-6.3-6.3 18.3 18.3 0 01-2.1-9c0-3.2.7-6.1 2.1-8.8a16 16 0 016.2-6.3c2.7-1.6 5.7-2.4 9.2-2.4 3.6 0 6.6.8 9.3 2.4a16 16 0 016.1 6.3c1.4 2.7 2.2 5.6 2.2 8.9 0 3.2-.8 6.2-2.2 8.9a16.2 16.2 0 01-6.2 6.3 17.8 17.8 0 01-9.2 2.3zm.3-6.4c2.8 0 5-1 6.6-3.1 1.7-2.1 2.5-4.7 2.5-7.9s-.9-5.8-2.6-8a8.5 8.5 0 00-7-3.2 8 8 0 00-6.6 3.2 12.6 12.6 0 00-2.6 8c0 3.1 1 5.7 2.7 7.8a8.7 8.7 0 007 3.2zm59.2 6.4c-3.3 0-6.3-.7-9-2.1a16 16 0 01-6.3-6.2 18.7 18.7 0 01-2.3-9.5c0-3.5.7-6.5 2.1-9.1 1.5-2.6 3.5-4.6 6-6 2.7-1.5 5.7-2.2 9.1-2.2 2.6 0 4.8.4 6.7 1a13 13 0 014.4 2.5l-3.5 6.3c-2-2-4.4-3-7-3-3 0-5.4.9-7 2.8a11.2 11.2 0 00-2.5 7.6c0 3.6.8 6.4 2.5 8.4s4 3 7 3a15 15 0 007.8-2.2l2.8 5.5c-1 .9-2.5 1.6-4.4 2.3-2 .6-4 1-6.4 1zm34 0c-3.5 0-6.5-.7-9.2-2.3a16.1 16.1 0 01-6.2-6.3 18.3 18.3 0 01-2.2-9c0-3.2.7-6.1 2.2-8.8a16 16 0 016.1-6.3c2.7-1.6 5.8-2.4 9.3-2.4 3.5 0 6.6.8 9.2 2.4a16 16 0 016.2 6.3c1.4 2.7 2.1 5.6 2.1 8.9 0 3.2-.7 6.2-2.2 8.9a16.2 16.2 0 01-6.1 6.3 17.8 17.8 0 01-9.2 2.3zm.2-6.4c2.8 0 5-1 6.7-3.1 1.6-2.1 2.4-4.7 2.4-7.9s-.8-5.8-2.6-8a8.5 8.5 0 00-7-3.2 8 8 0 00-6.6 3.2 12.6 12.6 0 00-2.5 8c0 3.1.9 5.7 2.7 7.8a8.7 8.7 0 006.9 3.2zm25.7 5.7v-33.5h7.9v6c1-2.2 2.6-4 4.7-5.1 2-1.2 4.4-1.8 7.1-1.8 6 0 9.7 2.2 11 6.2 1.1-1.9 2.7-3.4 4.9-4.5 2.1-1.1 4.4-1.7 6.7-1.7 3.5 0 6.2.7 8 2 1.8 1.4 3 3.3 3.6 5.7.6 2.5 1 5.8 1 10v16.7h-8v-16.8c0-4-.4-6.8-1.2-8.5-.8-1.7-2.4-2.6-4.7-2.6-3 0-5.4 1-7 3.1a13 13 0 00-2.3 8.2v16.6h-7.9v-18c0-2.6-.1-4.5-.3-5.8a4.6 4.6 0 00-1.6-3c-.9-.7-2.3-1-4.2-1-1.7 0-3.3.4-4.8 1.5-1.5 1-2.7 2.4-3.6 4a12 12 0 00-1.3 5.7v16.6h-8zm65 17.8v-51.3h7.6v6.2c2.7-4.7 7-7 12.6-7 4.7 0 8.5 1.4 11.5 4.4 2.9 3 4.3 7.3 4.3 13 0 3.5-.7 6.6-2.1 9.3a15.6 15.6 0 01-14 8.3c-2.9 0-5.3-.5-7.4-1.5-2-1-3.7-2.4-4.9-4.2l.1 22.8h-7.7zm18-23.7a9 9 0 007.3-3c1.7-2 2.6-4.6 2.6-7.8 0-3.3-.9-6-2.6-8-1.6-1.9-4-2.9-7.3-2.9a10 10 0 00-5 1.3c-1.5.9-2.7 2-3.6 3.6a11 11 0 00-1.3 5.6v.5c0 2 .4 4 1.3 5.6a9.5 9.5 0 008.6 5.1zM663 513a16.2 16.2 0 01-14.5-8.3 18.2 18.2 0 01-2.2-9.2c0-3.5.6-6.6 2-9.2 1.3-2.7 3.2-4.7 5.7-6.2a17 17 0 0114.2-1.1c1.7.6 3.2 1.5 4.3 2.5 1.2 1 2 2 2.4 3l.1-5.7h7.5v33.5h-7.4l-.2-5.9c-.8 1.8-2.3 3.3-4.5 4.6-2.2 1.4-4.6 2-7.4 2zm1.4-6.5c2.7 0 5-1 7-2.9 1.9-2 2.8-4.4 2.8-7.6v-.5c0-2-.4-4-1.3-5.6-.9-1.6-2-3-3.6-3.9a9.3 9.3 0 00-5-1.4 9 9 0 00-7.2 3c-1.7 2.1-2.5 4.7-2.5 8 0 3.2.8 5.8 2.5 7.8s4.1 3 7.3 3zm28.5 5.8v-33.5h7.9v6.6c.8-2.3 2-4 3.8-5.4 1.7-1.4 3.7-2 6-2 1.5 0 2.6 0 3.2.4l-1.1 8c-.4-.4-1.4-.5-2.9-.5a10 10 0 00-6.2 2.2c-1.9 1.4-2.8 3.8-2.8 7v17.2h-7.9zm42.3.7c-4 0-7.3-.7-10-2.3a14.6 14.6 0 01-6-6.4 20 20 0 01-1.8-8.7c0-3.6.7-6.7 2.2-9.3 1.5-2.7 3.5-4.8 6.2-6.2 2.6-1.4 5.6-2.2 8.9-2.2 5.1 0 9 1.5 11.5 4.3 2.5 2.9 3.7 6.9 3.7 12 0 1.3 0 2.7-.2 4.1h-24c.4 3 1.5 5.1 3 6.4a10 10 0 006.7 2 18.8 18.8 0 0010-2.2l2.3 5.6c-1.2.8-2.8 1.5-5 2-2 .7-4.6 1-7.5 1zm-9.6-20.2h16.7c0-3-.7-5.1-2-6.4-1.4-1.2-3.3-1.8-5.9-1.8-5 0-8 2.7-8.8 8.2z" paint-order="fill" style="white-space:pre"/>
  <path fill="#fff" fill-opacity=".7" d="M259.8 959.5H1315v86.9H259.8z"/>
  <path fill="#333" d="M291 1015.4v-25.5h-7.5v-4H303v4h-7.6v25.5H291zm14.4 0V997h4.5v18.4h-4.5zm2.2-21.8c-.8 0-1.5-.3-2-.9-.6-.5-1-1.2-1-2s.4-1.4 1-2c.5-.5 1.2-.8 2-.8s1.5.3 2 .8c.6.6.9 1.2.9 2a2.9 2.9 0 01-2.9 2.9zm8.4 31.5v-28h4.1v3.3a7.4 7.4 0 016.9-3.9c2.6 0 4.7.9 6.3 2.5 1.6 1.6 2.4 4 2.4 7 0 2-.4 3.7-1.2 5.2a8.6 8.6 0 01-7.7 4.6c-1.6 0-2.9-.3-4-.8-1.2-.6-2-1.4-2.7-2.4v12.5H316zm9.8-13a5 5 0 004-1.6c1-1.1 1.4-2.6 1.4-4.3 0-1.8-.5-3.3-1.4-4.3-1-1.1-2.2-1.6-4-1.6-1 0-1.9.2-2.7.7-.8.4-1.5 1-2 2a6 6 0 00-.7 3v.3c0 1.1.2 2.1.7 3 .5.9 1.1 1.6 2 2 .8.6 1.7.8 2.7.8zm27-9.9c-.8 0-1.5-.2-2-.8-.6-.5-1-1.2-1-2a2.8 2.8 0 013-2.9 2.8 2.8 0 012.8 3c0 .7-.2 1.4-.8 2-.5.5-1.2.8-2 .8zm0 13.6c-.8 0-1.5-.3-2-.8-.6-.6-1-1.3-1-2a2.8 2.8 0 013-3 2.8 2.8 0 012.8 3c0 .7-.2 1.4-.8 2-.5.5-1.2.8-2 .8zm19.5 9.7l4-9.6-7.7-18.9h5l3.8 11.7 1 2.8.8-2.8 4.1-11.7h4.7l-11.2 28.5h-4.5zm27-9.7c-1.8 0-3.5-.5-5-1.3-1.4-.9-2.5-2-3.3-3.5a10 10 0 01-1.2-4.9c0-1.7.3-3.3 1.1-4.8s2-2.6 3.4-3.5a10 10 0 015-1.3c2 0 3.7.5 5.2 1.3 1.4.9 2.5 2 3.3 3.5a10 10 0 011.2 4.8 10 10 0 01-1.2 5 9 9 0 01-3.4 3.4 9.7 9.7 0 01-5 1.3zm.2-3.5c1.6 0 2.8-.6 3.7-1.8a6.8 6.8 0 001.3-4.3c0-1.7-.5-3.2-1.4-4.4a4.6 4.6 0 00-3.8-1.8c-1.5 0-2.8.6-3.7 1.8a7 7 0 00-1.4 4.4c0 1.7.5 3.1 1.5 4.3 1 1.2 2.3 1.8 3.8 1.8zm20.5 3.5c-2.6 0-4.3-.8-5.3-2.3-1-1.5-1.4-3.5-1.4-6.2V997h4.3v9.2c0 1.5.1 2.7.3 3.5a3 3 0 001 2c.6.3 1.3.5 2.4.5a4 4 0 002.1-.6 5 5 0 001.7-1.8c.5-.7.7-1.5.7-2.4V997h4.3v18.4h-3.5l-.5-2.7c-.7 1-1.5 1.8-2.5 2.3a8 8 0 01-3.6.8zm34.2 0c-1.8 0-3.5-.4-4.9-1.2-1.5-.8-2.6-2-3.5-3.4-.8-1.5-1.2-3.2-1.2-5.2s.3-3.6 1.1-5a8.2 8.2 0 013.4-3.3c1.4-.8 3-1.2 4.9-1.2 1.4 0 2.6.2 3.7.6a7 7 0 012.4 1.3l-2 3.5a5.2 5.2 0 00-3.7-1.7c-1.8 0-3 .5-4 1.6-.8 1-1.3 2.4-1.3 4.1a7 7 0 001.4 4.6c1 1.1 2.2 1.7 3.9 1.7a8.2 8.2 0 004.2-1.2l1.6 3a10.8 10.8 0 01-6 1.8zm18.2 0c-1.7 0-3.2-.4-4.6-1.2-1.4-.8-2.5-2-3.3-3.4a10 10 0 01-1.3-5c0-2 .4-3.7 1.1-5.1a8 8 0 013.1-3.4 9.3 9.3 0 017.8-.6c1 .4 1.8.8 2.4 1.4.6.5 1 1 1.3 1.6v-3h4.2v18.3H479v-3.3c-.5 1-1.4 1.8-2.6 2.6a7.6 7.6 0 01-4 1zm.7-3.6c1.5 0 2.8-.6 3.9-1.6 1-1 1.5-2.4 1.5-4.1v-.3c0-1.2-.2-2.2-.7-3.1-.5-1-1.1-1.6-2-2.1-.8-.5-1.7-.8-2.7-.8-1.7 0-3 .6-4 1.7a6.4 6.4 0 00-1.3 4.3c0 1.8.4 3.2 1.3 4.3 1 1.1 2.3 1.7 4 1.7zm15.8 3.2V997h4.2v3.4a6.8 6.8 0 016.2-3.8 7 7 0 014.5 1.1c1 .8 1.6 1.9 2 3.3.3 1.4.5 3.3.5 5.5v8.9H502v-8.8c0-2.3-.2-4-.7-5-.4-1-1.4-1.5-2.8-1.5-.8 0-1.6.2-2.4.7-.9.5-1.5 1.2-2 2.2-.6.9-1 2-1 3.3v9H489zm40.9.4c-1.7 0-3.2-.4-4.6-1.2-1.4-.8-2.5-2-3.3-3.4a10 10 0 01-1.3-5c0-2 .4-3.7 1.1-5.1a8 8 0 013.1-3.4 9.3 9.3 0 017.8-.6c1 .4 1.8.8 2.4 1.4.6.5 1 1 1.3 1.6v-3h4.2v18.3h-4.1v-3.3c-.5 1-1.4 1.8-2.6 2.6a7.6 7.6 0 01-4 1zm.7-3.6c1.5 0 2.8-.6 3.9-1.6 1-1 1.5-2.4 1.5-4.1v-.3c0-1.2-.2-2.2-.7-3.1-.5-1-1.1-1.6-2-2.1-.8-.5-1.7-.8-2.7-.8-1.7 0-3 .6-4 1.7a6.4 6.4 0 00-1.3 4.3c0 1.8.4 3.2 1.3 4.3 1 1.1 2.3 1.7 4 1.7zm16.1 3.2V986h4.3v29.4h-4.3zm16.7.4c-1.3 0-2.6-.2-4-.5a8.1 8.1 0 01-2.9-1.2l1.4-3.4a9.3 9.3 0 005.5 1.7c2 0 3.1-.6 3.1-1.8 0-.6-.2-1-.6-1.3l-2.3-1-1.5-.6c-1.6-.6-3-1.4-3.8-2.3-1-.9-1.4-2-1.4-3.5 0-1.7.6-3 2-4a9 9 0 015.2-1.4c1.1 0 2.2.1 3.3.4 1 .2 1.8.5 2.4 1l-1.6 3.4c-.3-.4-.9-.7-1.6-1a8 8 0 00-2.6-.3c-1.9 0-2.8.5-2.8 1.7 0 .6.2 1.1.7 1.4.5.4 1.4.8 2.5 1.1l1.3.5c1.7.7 3 1.4 3.8 2.3.8.8 1.2 2 1.2 3.3 0 1.8-.7 3.1-2 4a9 9 0 01-5.3 1.5zm20.3 0c-1.9 0-3.5-.5-5-1.3-1.5-.9-2.6-2-3.4-3.5a10 10 0 01-1.2-4.9c0-1.7.4-3.3 1.2-4.8.8-1.5 1.9-2.6 3.4-3.5a10 10 0 015-1.3c2 0 3.6.5 5.1 1.3 1.4.9 2.6 2 3.4 3.5a10 10 0 011.1 4.8 10 10 0 01-1.2 5 9 9 0 01-3.3 3.4 9.7 9.7 0 01-5 1.3zm.2-3.5c1.5 0 2.7-.6 3.6-1.8a6.8 6.8 0 001.4-4.3c0-1.7-.5-3.2-1.5-4.4a4.6 4.6 0 00-3.8-1.8c-1.5 0-2.7.6-3.6 1.8a7 7 0 00-1.4 4.4c0 1.7.5 3.1 1.5 4.3 1 1.2 2.2 1.8 3.8 1.8zm32 3.5c-1.7 0-3.2-.4-4.6-1.2-1.4-.8-2.5-2-3.4-3.4a10 10 0 01-1.2-5c0-3 .8-5.3 2.4-7a8.6 8.6 0 016.6-2.7c1.5 0 3 .4 4.2 1.2a6 6 0 012.6 2.7l-.2-3.1V986h4.3v29.4h-4.1l-.1-3.3c-.5 1-1.3 1.8-2.5 2.6a7.6 7.6 0 01-4 1zm.7-3.7c1.5 0 2.8-.5 3.8-1.6 1-1 1.6-2.4 1.6-4v-.4c0-1.1-.3-2.1-.7-3-.5-1-1.2-1.7-2-2.2-.8-.5-1.7-.7-2.7-.7-1.7 0-3 .5-4 1.6a6.4 6.4 0 00-1.4 4.3c0 1.8.5 3.3 1.4 4.4 1 1 2.2 1.6 4 1.6zm15.6 3.3V997h4.3v3.6a6.3 6.3 0 012-3c1-.7 2.1-1 3.4-1 .8 0 1.4 0 1.7.2l-.6 4.3c-.2-.1-.7-.2-1.5-.2-1.3 0-2.4.4-3.5 1.2-1 .8-1.5 2-1.5 3.8v9.5h-4.3zm23 .4c-1.9 0-3.6-.5-5-1.3-1.5-.9-2.6-2-3.4-3.5a10 10 0 01-1.2-4.9c0-1.7.4-3.3 1.2-4.8.7-1.5 1.9-2.6 3.3-3.5a10 10 0 015.1-1.3c2 0 3.6.5 5 1.3 1.5.9 2.6 2 3.4 3.5a10 10 0 011.2 4.8 10 10 0 01-1.2 5 9 9 0 01-3.4 3.4 9.7 9.7 0 01-5 1.3zm.1-3.5c1.6 0 2.8-.6 3.7-1.8a6.8 6.8 0 001.3-4.3c0-1.7-.4-3.2-1.4-4.4a4.6 4.6 0 00-3.8-1.8c-1.5 0-2.7.6-3.7 1.8a7 7 0 00-1.3 4.4c0 1.7.4 3.1 1.4 4.3 1 1.2 2.3 1.8 3.8 1.8zm14.2 12.8v-28h4.2v3.3a7.4 7.4 0 016.8-3.9c2.6 0 4.7.9 6.3 2.5 1.6 1.6 2.4 4 2.4 7 0 2-.4 3.7-1.2 5.2a8.6 8.6 0 01-7.7 4.6c-1.5 0-2.9-.3-4-.8-1.1-.6-2-1.4-2.6-2.4v12.5h-4.2zm9.8-13a5 5 0 004-1.6c1-1.1 1.4-2.6 1.4-4.3 0-1.8-.4-3.3-1.3-4.3-1-1.1-2.3-1.6-4-1.6-1 0-2 .2-2.8.7-.8.4-1.5 1-2 2a6 6 0 00-.7 3v.3c0 1.1.2 2.1.7 3 .5.9 1.2 1.6 2 2 .8.6 1.7.8 2.7.8zm32.4 3.7c-1.6 0-3.1-.4-4.5-1.2-1.4-.8-2.6-2-3.4-3.4a10 10 0 01-1.3-5c0-2 .4-3.7 1.1-5.1a8 8 0 013.2-3.4 9.3 9.3 0 017.8-.6c1 .4 1.7.8 2.3 1.4.7.5 1.1 1 1.3 1.6l.1-3h4.1v18.3h-4l-.1-3.3c-.5 1-1.3 1.8-2.5 2.6a7.6 7.6 0 01-4 1zm.8-3.6c1.5 0 2.8-.6 3.8-1.6s1.6-2.4 1.6-4.1v-.3c0-1.2-.3-2.2-.8-3.1-.4-1-1.1-1.6-2-2.1-.8-.5-1.7-.8-2.6-.8-1.8 0-3 .6-4 1.7a6.4 6.4 0 00-1.4 4.3c0 1.8.5 3.2 1.4 4.3.9 1.1 2.2 1.7 4 1.7zm31.8 3.6c-1.2 0-2.6-.2-4-.5a8.1 8.1 0 01-2.9-1.2l1.5-3.4a9.3 9.3 0 005.4 1.7c2 0 3.1-.6 3.1-1.8 0-.6-.2-1-.6-1.3l-2.3-1-1.5-.6c-1.6-.6-2.9-1.4-3.8-2.3-1-.9-1.4-2-1.4-3.5 0-1.7.6-3 2-4a9 9 0 015.3-1.4c1 0 2.1.1 3.2.4 1 .2 1.8.5 2.4 1l-1.6 3.4c-.3-.4-.9-.7-1.6-1a8 8 0 00-2.6-.3c-1.9 0-2.8.5-2.8 1.7 0 .6.2 1.1.8 1.4.5.4 1.3.8 2.4 1.1l1.3.5c1.7.7 3 1.4 3.8 2.3.8.8 1.2 2 1.2 3.3 0 1.8-.7 3.1-2 4a9 9 0 01-5.3 1.5zm12.1-.4V997h4.5v18.4h-4.5zm2.2-21.8c-.8 0-1.5-.3-2-.9-.6-.5-.9-1.2-.9-2s.3-1.4.8-2c.6-.5 1.3-.8 2.1-.8s1.5.3 2 .8c.6.6.9 1.2.9 2s-.3 1.5-.8 2c-.6.6-1.3.9-2 .9zm8.3 21.8V997h4.2v3.4a6.8 6.8 0 016.2-3.8 7 7 0 014.5 1.1c1 .8 1.7 1.9 2 3.3.4 1.4.5 3.3.5 5.5v8.9H780v-8.8c0-2.3-.2-4-.7-5-.4-1-1.4-1.5-2.8-1.5-.8 0-1.6.2-2.4.7-.8.5-1.5 1.2-2 2.2-.6.9-.9 2-.9 3.3v9h-4.3zm32 9.6c-1.4 0-2.8-.2-4.1-.6-1.3-.4-2.3-.7-2.8-1l1-4c1.7 1.1 3.6 1.7 5.7 1.7 1.6 0 3-.4 4-1.2 1.1-.7 1.7-2.3 1.7-4.5v-3.3c-.5 1-1.5 2-2.7 2.6-1.3.7-2.6 1-4.2 1s-3-.3-4.4-1.1c-1.3-.8-2.4-2-3.1-3.4-.8-1.5-1.2-3.2-1.2-5.1 0-1.9.4-3.5 1.1-5a8 8 0 013.2-3.4 9.2 9.2 0 0110.1.8c.6.5 1 1 1.3 1.6v-3h4.2v18.1c0 3.2-.8 5.6-2.4 7.3-1.6 1.6-4.1 2.5-7.5 2.5zm-.2-12.9c1.6 0 2.8-.5 3.9-1.6 1-1 1.5-2.4 1.5-4v-.4c0-1.1-.2-2.1-.7-3-.5-1-1.1-1.7-2-2.2-.8-.5-1.7-.7-2.7-.7-1.7 0-3 .5-4 1.6a6.4 6.4 0 00-1.3 4.3c0 1.8.4 3.3 1.4 4.4.9 1 2.2 1.6 4 1.6zm15.8 3.3V986h4.3v29.4h-4.3zm19 .4c-2.1 0-4-.5-5.4-1.3a8 8 0 01-3.2-3.5c-.7-1.5-1-3-1-4.8 0-2 .3-3.6 1.1-5.1.8-1.5 2-2.6 3.4-3.4a10 10 0 014.9-1.2c2.8 0 5 .8 6.3 2.4 1.4 1.5 2 3.7 2 6.6v2.2h-13.3c.3 1.6 1 2.8 1.8 3.5.8.7 2 1 3.6 1a10.1 10.1 0 005.4-1.2l1.4 3.2a15.7 15.7 0 01-6.9 1.6zm-5.2-11.1h9.2c0-1.7-.4-2.8-1.1-3.5-.8-.7-1.8-1-3.2-1-2.8 0-4.4 1.5-4.9 4.5zm28 10.7V997h4.5v18.4h-4.5zm2.2-21.8c-.8 0-1.5-.3-2-.9-.6-.5-1-1.2-1-2s.4-1.4 1-2c.5-.5 1.2-.8 2-.8s1.5.3 2 .8c.6.6.9 1.2.9 2s-.3 1.5-.8 2c-.6.6-1.3.9-2.1.9zm8.3 21.8V997h4.3v3.3a6.2 6.2 0 012.6-2.8c1.1-.6 2.4-1 3.9-1 3.3 0 5.3 1.2 6 3.4a8 8 0 016.4-3.4c1.9 0 3.3.4 4.3 1.1 1 .8 1.7 1.8 2 3.1.3 1.4.5 3.2.5 5.5v9.2h-4.3v-9.3c0-2.1-.3-3.7-.7-4.6-.4-1-1.3-1.4-2.5-1.4-1.7 0-3 .6-3.9 1.7a7.1 7.1 0 00-1.3 4.5v9h-4.3v-9.8l-.1-3.2c-.2-.7-.4-1.2-1-1.6-.4-.4-1.2-.6-2.2-.6-1 0-1.9.3-2.7.8a6.5 6.5 0 00-2.7 5.3v9.2h-4.3zm43.7.4c-1.7 0-3.2-.4-4.6-1.2-1.4-.8-2.5-2-3.4-3.4a10 10 0 01-1.2-5c0-2 .3-3.7 1-5.1a8 8 0 013.2-3.4 9.3 9.3 0 017.8-.6c1 .4 1.7.8 2.4 1.4.6.5 1 1 1.2 1.6l.1-3h4.1v18.3h-4l-.1-3.3c-.5 1-1.3 1.8-2.5 2.6a7.6 7.6 0 01-4 1zm.7-3.6c1.5 0 2.8-.6 3.8-1.6s1.6-2.4 1.6-4.1v-.3c0-1.2-.3-2.2-.7-3.1-.5-1-1.2-1.6-2-2.1s-1.7-.8-2.7-.8c-1.7 0-3 .6-4 1.7a6.4 6.4 0 00-1.4 4.3c0 1.8.5 3.2 1.4 4.3 1 1.1 2.2 1.7 4 1.7zm24.7 12.8c-1.4 0-2.7-.2-4-.6l-2.9-1 1-4c1.7 1.1 3.7 1.7 5.7 1.7 1.6 0 3-.4 4-1.2 1.2-.7 1.7-2.3 1.8-4.5v-3.3c-.6 1-1.5 2-2.8 2.6-1.2.7-2.6 1-4.1 1-1.6 0-3-.3-4.4-1.1-1.4-.8-2.4-2-3.2-3.4-.8-1.5-1.1-3.2-1.1-5.1 0-1.9.3-3.5 1-5a8 8 0 013.2-3.4 9.2 9.2 0 0110.1.8c.7.5 1.1 1 1.3 1.6l.1-3h4.1v18.1c0 3.2-.8 5.6-2.4 7.3-1.6 1.6-4 2.5-7.4 2.5zm-.1-12.9c1.5 0 2.8-.5 3.8-1.6 1-1 1.6-2.4 1.6-4v-.4c0-1.1-.3-2.1-.7-3-.5-1-1.2-1.7-2-2.2-.8-.5-1.7-.7-2.7-.7-1.7 0-3 .5-4 1.6a6.4 6.4 0 00-1.4 4.3c0 1.8.5 3.3 1.4 4.4 1 1 2.2 1.6 4 1.6zm24 3.7c-2 0-4-.5-5.4-1.3a8 8 0 01-3.2-3.5c-.7-1.5-1-3-1-4.8 0-2 .3-3.6 1.2-5.1.8-1.5 1.9-2.6 3.3-3.4a10 10 0 015-1.2c2.7 0 4.8.8 6.2 2.4 1.4 1.5 2 3.7 2 6.6v2.2h-13.2c.2 1.6.8 2.8 1.7 3.5.9.7 2 1 3.6 1a10.1 10.1 0 005.4-1.2l1.4 3.2a15.7 15.7 0 01-6.9 1.6zm-5.1-11.1h9c.1-1.7-.3-2.8-1-3.5-.8-.7-1.8-1-3.2-1-2.8 0-4.4 1.5-4.8 4.5zm36.2 11c-2 0-3.6-.4-5-1.2-1.6-.9-2.7-2-3.5-3.5a10 10 0 01-1.2-4.9c0-1.7.4-3.3 1.2-4.8.8-1.5 2-2.6 3.4-3.5a10 10 0 015-1.3c2 0 3.7.5 5.1 1.3 1.5.9 2.6 2 3.4 3.5a10 10 0 011.2 4.8 10 10 0 01-1.2 5 9 9 0 01-3.4 3.4 9.7 9.7 0 01-5 1.3zm0-3.5c1.6 0 2.8-.5 3.7-1.7a6.8 6.8 0 001.4-4.3c0-1.7-.5-3.2-1.5-4.4a4.6 4.6 0 00-3.8-1.8c-1.5 0-2.7.6-3.6 1.8a7 7 0 00-1.4 4.4c0 1.7.5 3.1 1.5 4.3 1 1.2 2.2 1.8 3.8 1.8zm14.2 3.2V997h4.2v3.4c.5-1.1 1.3-2 2.4-2.8 1.1-.7 2.4-1 3.9-1a7 7 0 014.3 1.1c1 .8 1.7 1.9 2 3.3.4 1.4.6 3.3.6 5.5v8.9h-4.3v-8.8c0-2.3-.3-4-.7-5-.5-1-1.4-1.5-2.8-1.5-.8 0-1.6.2-2.4.7-.9.5-1.6 1.2-2.1 2.2-.6.9-.8 2-.8 3.3v9h-4.3zm40.9.4c-1.7 0-3.2-.4-4.6-1.2-1.4-.8-2.5-2-3.4-3.4a10 10 0 01-1.2-5c0-2 .3-3.7 1-5.1a8 8 0 013.2-3.4 9.3 9.3 0 017.8-.6c1 .4 1.7.8 2.4 1.4.6.5 1 1 1.3 1.6v-3h4.2v18.3h-4.1l-.1-3.3c-.5 1-1.3 1.8-2.5 2.6a7.6 7.6 0 01-4 1zm.7-3.6c1.5 0 2.8-.6 3.8-1.6s1.6-2.4 1.6-4.1v-.3c0-1.2-.2-2.2-.7-3.1-.5-1-1.2-1.6-2-2.1s-1.7-.8-2.7-.8c-1.7 0-3 .6-4 1.7a6.4 6.4 0 00-1.4 4.3c0 1.8.5 3.2 1.4 4.3 1 1.1 2.3 1.7 4 1.7zm31.9 3.6c-1.3 0-2.6-.2-4-.5a8.1 8.1 0 01-3-1.2l1.5-3.4a9.3 9.3 0 005.5 1.7c2 0 3-.6 3-1.8 0-.6-.2-1-.6-1.3-.4-.3-1.2-.6-2.3-1l-1.5-.6c-1.6-.6-2.9-1.4-3.8-2.3-1-.9-1.4-2-1.4-3.5 0-1.7.7-3 2-4a9 9 0 015.3-1.4c1 0 2.2.1 3.2.4 1 .2 1.9.5 2.4 1l-1.5 3.4c-.4-.4-1-.7-1.7-1a8 8 0 00-2.5-.3c-2 0-2.9.5-2.9 1.7 0 .6.3 1.1.8 1.4.5.4 1.3.8 2.5 1.1l1.2.5c1.7.7 3 1.4 3.8 2.3.8.8 1.3 2 1.3 3.3 0 1.8-.7 3.1-2.1 4a9 9 0 01-5.2 1.5zm11.8 9.3v-28h4.2v3.3a7.4 7.4 0 016.9-3.9c2.5 0 4.6.9 6.2 2.5 1.6 1.6 2.4 4 2.4 7 0 2-.4 3.7-1.1 5.2a8.6 8.6 0 01-7.7 4.6c-1.6 0-3-.3-4-.8-1.2-.6-2-1.4-2.7-2.4v12.5h-4.2zm9.9-13a5 5 0 004-1.6c.9-1.1 1.4-2.6 1.4-4.3 0-1.8-.5-3.3-1.4-4.3-1-1.1-2.3-1.6-4-1.6-1 0-1.9.2-2.7.7-.9.4-1.6 1-2 2a6 6 0 00-.8 3v.3c0 1.1.3 2.1.8 3 .4.9 1.1 1.6 2 2 .8.6 1.7.8 2.7.8zm23.1 3.7c-2.2 0-4-.5-5.5-1.3a8 8 0 01-3.2-3.5c-.7-1.5-1-3-1-4.8 0-2 .4-3.6 1.2-5.1.8-1.5 2-2.6 3.4-3.4a10 10 0 014.8-1.2c2.9 0 5 .8 6.3 2.4 1.4 1.5 2.1 3.7 2.1 6.6l-.1 2.2H1118c.3 1.6.8 2.8 1.7 3.5.9.7 2 1 3.6 1a10.1 10.1 0 005.4-1.2l1.4 3.2a15.7 15.7 0 01-6.9 1.6zm-5.2-11.1h9.1c0-1.7-.3-2.8-1-3.5-.8-.7-1.9-1-3.3-1-2.8 0-4.4 1.5-4.8 4.5zm26.4 11c-1.8 0-3.5-.3-5-1.1-1.4-.8-2.5-2-3.4-3.4-.8-1.5-1.3-3.2-1.3-5.2s.4-3.6 1.2-5a8.1 8.1 0 013.3-3.3c1.5-.8 3.1-1.2 5-1.2 1.4 0 2.6.2 3.6.6a7 7 0 012.5 1.3l-2 3.5a5.2 5.2 0 00-3.8-1.7c-1.7 0-3 .5-3.9 1.6-.9 1-1.3 2.4-1.3 4.1a7 7 0 001.4 4.6c.9 1.1 2.2 1.7 3.8 1.7a8.3 8.3 0 004.3-1.2l1.5 3c-.6.5-1.4.9-2.4 1.2-1 .4-2.2.6-3.5.6zm10.4-.3V997h4.5v18.4h-4.5zm2.2-21.8c-.9 0-1.5-.3-2.1-.9-.6-.5-.8-1.2-.8-2s.2-1.4.8-2c.6-.5 1.2-.8 2-.8.9 0 1.6.3 2.1.8.6.6.9 1.2.9 2s-.3 1.5-.9 2c-.5.6-1.2.9-2 .9zm10 21.8v-15h-3V997h3v-4c0-2.4.6-4.2 1.7-5.5 1.2-1.4 2.9-2 5.1-2 1 0 2 .2 3 .8l-.7 4a3 3 0 00-.9-.6c-.4-.2-.8-.3-1.3-.3-1.8 0-2.7 1.2-2.7 3.5v4.1h4.3v3.5h-4.3v14.9h-4.2zm11.2 0V997h4.5v18.4h-4.5zm2.2-21.8c-.8 0-1.5-.3-2-.9-.6-.5-.9-1.2-.9-2s.3-1.4.8-2c.6-.5 1.3-.8 2.1-.8s1.5.3 2 .8c.6.6.9 1.2.9 2s-.3 1.5-.8 2c-.6.6-1.3.9-2 .9zm18.7 22.2c-1.8 0-3.5-.4-4.9-1.2-1.5-.8-2.6-2-3.5-3.4-.8-1.5-1.2-3.2-1.2-5.2s.3-3.6 1.1-5a8.1 8.1 0 013.4-3.3c1.4-.8 3-1.2 4.9-1.2 1.4 0 2.6.2 3.7.6a7 7 0 012.4 1.3l-2 3.5a5.2 5.2 0 00-3.7-1.7c-1.8 0-3 .5-4 1.6-.8 1-1.3 2.4-1.3 4.1a7 7 0 001.4 4.6c1 1.1 2.2 1.7 3.9 1.7a8.3 8.3 0 004.2-1.2l1.6 3a10.8 10.8 0 01-6 1.8zm26.2 0c-1.3 0-2.6-.2-4-.5a8.1 8.1 0 01-3-1.2l1.5-3.4a9.3 9.3 0 005.5 1.7c2 0 3-.6 3-1.8 0-.6-.1-1-.6-1.3-.4-.3-1.2-.6-2.2-1l-1.6-.6c-1.6-.6-2.8-1.4-3.8-2.3-.9-.9-1.4-2-1.4-3.5 0-1.7.7-3 2-4a9 9 0 015.3-1.4c1.1 0 2.2.1 3.2.4 1 .2 1.9.5 2.5 1l-1.6 3.4c-.4-.4-.9-.7-1.7-1a8 8 0 00-2.5-.3c-1.9 0-2.8.5-2.8 1.7 0 .6.2 1.1.7 1.4.5.4 1.3.8 2.5 1.1l1.2.5c1.7.7 3 1.4 3.8 2.3.9.8 1.3 2 1.3 3.3 0 1.8-.7 3.1-2 4a9 9 0 01-5.3 1.5zm12-.4V997h4.6v18.4h-4.5zm2.3-21.8c-.9 0-1.5-.3-2.1-.9-.6-.5-.8-1.2-.8-2s.2-1.4.8-2c.6-.5 1.2-.8 2-.8.9 0 1.6.3 2.1.8.6.6.9 1.2.9 2s-.3 1.5-.9 2c-.5.6-1.2.9-2 .9zm16.4 22.2c-1.7 0-3.2-.4-4.6-1.2-1.4-.8-2.5-2-3.4-3.4a10 10 0 01-1.2-5c0-3 .8-5.3 2.4-7a8.6 8.6 0 016.6-2.7c1.6 0 3 .4 4.3 1.2a6 6 0 012.6 2.7l-.2-3.1V986h4.2v29.4h-4.1l-.1-3.3c-.5 1-1.3 1.8-2.5 2.6a7.6 7.6 0 01-4 1zm.7-3.7c1.5 0 2.8-.5 3.8-1.6 1-1 1.6-2.4 1.6-4v-.4c0-1.1-.2-2.1-.7-3-.5-1-1.2-1.7-2-2.2-.8-.5-1.7-.7-2.7-.7-1.7 0-3 .5-4 1.6a6.4 6.4 0 00-1.4 4.3c0 1.8.5 3.3 1.4 4.4 1 1 2.3 1.6 4 1.6zm24.4 3.7c-2.2 0-4-.5-5.5-1.3a8 8 0 01-3.2-3.5c-.7-1.5-1-3-1-4.8 0-2 .3-3.6 1.2-5.1.8-1.5 1.9-2.6 3.3-3.4a10 10 0 015-1.2c2.7 0 4.8.8 6.2 2.4 1.4 1.5 2 3.7 2 6.6v2.2H1276c.2 1.6.8 2.8 1.7 3.5.9.7 2 1 3.6 1a10.1 10.1 0 005.4-1.2l1.4 3.2a15.7 15.7 0 01-6.9 1.6zm-5.2-11.1h9c.1-1.7-.3-2.8-1-3.5-.8-.7-1.8-1-3.2-1-2.8 0-4.4 1.5-4.8 4.5z" style="white-space:pre"/>
  <path fill="#fff" fill-opacity=".7" d="M1178.5 10.8H1526v150.7h-347.6z"/>
  <path fill="#333" d="M1217.6 53.1h.4l14.2 29.5h-5.2l-2.5-5.8H1211l-2.5 5.8h-5l14-29.5zm.2 8.5l-1.8 4-3.2 7.2h10l-3.2-7.1-1.7-4h-.1zM1242 83c-1.6 0-3.2-.4-4.6-1.2-1.4-.8-2.5-2-3.3-3.4a10 10 0 01-1.3-5c0-3 .8-5.3 2.5-7a8.6 8.6 0 016.6-2.7c1.5 0 3 .4 4.2 1.2a6 6 0 012.6 2.7l-.2-3.1V53.2h4.2v29.4h-4l-.2-3.3c-.4 1-1.2 1.8-2.4 2.6a7.6 7.6 0 01-4 1zm.7-3.7c1.6 0 2.8-.5 3.9-1.6 1-1 1.5-2.4 1.5-4.1v-.3c0-1.1-.2-2.2-.7-3-.5-1-1.1-1.7-2-2.2-.8-.5-1.7-.7-2.7-.7-1.7 0-3 .5-4 1.6a6.4 6.4 0 00-1.3 4.3c0 1.8.4 3.3 1.4 4.4.9 1 2.2 1.6 4 1.6zm14 13c-1 0-2-.1-3.2-.4l1-3.9 1.2.4 1.1.2c.9 0 1.5-.2 2-.7.3-.5.5-1.5.5-3V64.3h4.3v21c0 2.3-.6 4-1.8 5.3a6.8 6.8 0 01-5 1.8zm4.5-31.5c-.8 0-1.5-.3-2-.9-.6-.5-1-1.2-1-2s.4-1.4 1-2c.5-.5 1.2-.8 2-.8s1.5.3 2 .8c.6.6.9 1.2.9 2a2.9 2.9 0 01-2.9 2.9zm14.8 22.2c-2.6 0-4.3-.8-5.2-2.3-1-1.5-1.5-3.6-1.5-6.2V64.2h4.4v9.2c0 1.5 0 2.7.2 3.5a3 3 0 001 1.9c.6.4 1.4.6 2.4.6a4 4 0 002.2-.6 5 5 0 001.7-1.8c.4-.7.6-1.5.6-2.4V64.2h4.3v18.4h-3.5l-.5-2.7c-.7 1-1.5 1.8-2.5 2.3a8 8 0 01-3.6.8zm22.2 0c-1.3 0-2.6-.2-4-.5a8.1 8.1 0 01-3-1.2l1.5-3.4a9.3 9.3 0 005.5 1.7c2 0 3-.6 3-1.8 0-.6-.2-1-.6-1.3-.4-.3-1.2-.6-2.3-1l-1.5-.6c-1.6-.6-2.9-1.4-3.8-2.3-1-.9-1.4-2-1.4-3.5 0-1.7.7-3 2-4a9 9 0 015.3-1.4c1 0 2.2.1 3.2.4 1 .2 1.9.5 2.4.9l-1.5 3.4-1.7-.9a8 8 0 00-2.5-.3c-2 0-2.9.5-2.9 1.7 0 .6.3 1.1.8 1.4.5.4 1.3.7 2.5 1.1l1.2.5c1.7.6 3 1.4 3.8 2.3.8.8 1.3 2 1.3 3.2 0 1.9-.7 3.2-2.1 4.2a9 9 0 01-5.2 1.4zm13.3-.4V67.7h-3.2v-3.5h3.2v-7.5l4.4-1v8.5h4.2v3.5h-4.2v14.9h-4.4zm28.3.4c-1.3 0-2.6-.2-4-.5a8.1 8.1 0 01-3-1.2l1.5-3.4a9.3 9.3 0 005.5 1.7c2 0 3-.6 3-1.8 0-.6-.2-1-.6-1.3-.4-.3-1.2-.6-2.3-1l-1.5-.6c-1.6-.6-2.9-1.4-3.8-2.3-1-.9-1.4-2-1.4-3.5 0-1.7.7-3 2-4a9 9 0 015.3-1.4c1 0 2.2.1 3.2.4 1 .2 1.9.5 2.4.9l-1.5 3.4-1.7-.9a8 8 0 00-2.5-.3c-2 0-2.9.5-2.9 1.7 0 .6.3 1.1.8 1.4.5.4 1.3.7 2.5 1.1l1.2.5c1.7.6 3 1.4 3.8 2.3.8.8 1.3 2 1.3 3.2 0 1.9-.7 3.2-2.1 4.2a9 9 0 01-5.2 1.4zm20.4 0c-2.2 0-4-.5-5.5-1.3a8 8 0 01-3.2-3.5c-.7-1.5-1-3-1-4.8 0-2 .4-3.7 1.2-5.1.8-1.5 2-2.6 3.4-3.4a10 10 0 014.8-1.2c2.9 0 5 .8 6.3 2.4 1.4 1.5 2 3.7 2 6.5V75H1355c.3 1.6.8 2.8 1.7 3.5.9.7 2 1 3.6 1a10.1 10.1 0 005.4-1.2l1.4 3.2a15.6 15.6 0 01-6.9 1.6zm-5.2-11.1h9c.1-1.7-.2-2.8-1-3.5-.7-.7-1.8-1-3.2-1-2.8 0-4.4 1.5-4.8 4.5zm19.4 10.7V67.7h-3.2v-3.5h3.2v-7.5l4.4-1v8.5h4.2v3.5h-4.2v14.9h-4.4zm13.7 0V67.7h-3.2v-3.5h3.2v-7.5l4.4-1v8.5h4.2v3.5h-4.2v14.9h-4.4zm12.5 0V64.2h4.5v18.4h-4.5zm2.2-21.8c-.9 0-1.5-.3-2.1-.9-.6-.5-.8-1.2-.8-2s.2-1.4.8-2c.6-.5 1.2-.8 2-.8.9 0 1.6.3 2.1.8.6.6.9 1.2.9 2a2.9 2.9 0 01-3 2.9zm8.3 21.8V64.2h4.2v3.4c.5-1.2 1.3-2 2.4-2.8 1.1-.7 2.4-1 3.9-1a7 7 0 014.3 1.1c1 .8 1.7 1.9 2 3.3.4 1.4.6 3.3.6 5.5v8.9h-4.3v-8.8c0-2.3-.3-4-.7-5-.5-1-1.4-1.5-2.8-1.5-.8 0-1.6.2-2.4.7-.9.5-1.6 1.2-2.1 2.2-.6.9-.8 2-.8 3.2v9.2h-4.3zm31.9 9.6c-1.4 0-2.7-.2-4-.6l-2.9-1 1-4c1.8 1.1 3.7 1.7 5.8 1.7 1.6 0 2.9-.4 4-1.2 1-.8 1.6-2.3 1.7-4.5v-3.3c-.6 1-1.5 2-2.7 2.6-1.3.7-2.7 1-4.2 1-1.6 0-3-.3-4.4-1.1-1.3-.8-2.4-2-3.2-3.4-.7-1.5-1.1-3.2-1.1-5.1 0-1.9.3-3.5 1-5a8 8 0 013.2-3.4 9.2 9.2 0 0110.2.8c.6.5 1 1 1.3 1.6v-3.1h4.1v18.2c0 3.2-.8 5.6-2.4 7.2-1.6 1.7-4 2.6-7.4 2.6zm-.1-12.9c1.5 0 2.8-.5 3.8-1.6 1-1 1.6-2.4 1.6-4.1v-.3c0-1.1-.2-2.2-.7-3-.5-1-1.2-1.7-2-2.2-.8-.5-1.7-.7-2.7-.7-1.7 0-3 .5-4 1.6a6.4 6.4 0 00-1.4 4.3c0 1.8.5 3.3 1.4 4.4 1 1 2.3 1.6 4 1.6zm21.8 3.7c-1.3 0-2.7-.2-4-.5a8.1 8.1 0 01-3-1.2l1.5-3.4a9.3 9.3 0 005.5 1.7c2 0 3-.6 3-1.8 0-.6-.2-1-.6-1.3-.4-.3-1.2-.6-2.3-1l-1.5-.6c-1.6-.6-2.9-1.4-3.8-2.3-1-.9-1.4-2-1.4-3.5 0-1.7.7-3 2-4a9 9 0 015.3-1.4c1 0 2.1.1 3.2.4 1 .2 1.9.5 2.4.9l-1.5 3.4-1.7-.9a8 8 0 00-2.5-.3c-2 0-2.9.5-2.9 1.7 0 .6.3 1.1.8 1.4.5.4 1.3.7 2.5 1.1l1.2.5c1.7.6 3 1.4 3.8 2.3.8.8 1.2 2 1.2 3.2 0 1.9-.7 3.2-2 4.2a9 9 0 01-5.2 1.4zM1256.6 122.6v-18.4h4.4v18.4h-4.4zm2.2-21.8c-.9 0-1.6-.3-2.1-.9-.6-.5-.9-1.2-.9-2s.3-1.4.9-2c.5-.5 1.2-.8 2-.8.9 0 1.5.3 2 .8.7.6 1 1.2 1 2a2.9 2.9 0 01-3 2.9zm10 21.8v-15h-3v-3.4h3v-4c0-2.4.5-4.2 1.7-5.5 1.2-1.4 2.9-2 5-2 1 0 2 .2 3.2.7l-.9 4.1a3 3 0 00-.8-.6c-.4-.2-.8-.3-1.3-.3-1.8 0-2.7 1.2-2.7 3.5v4.1h4.3v3.4h-4.3v15h-4.2zm22.5 0v-18.4h4.3v3.4c.5-1.2 1.3-2 2.4-2.8 1-.7 2.4-1 3.8-1a7 7 0 014.4 1.1c1 .8 1.7 1.9 2 3.3.4 1.4.6 3.3.6 5.5v8.9h-4.4v-8.8c0-2.3-.2-4-.6-5-.5-1-1.4-1.5-2.8-1.5-.8 0-1.7.2-2.5.7-.8.5-1.5 1.2-2 2.2-.6.9-.9 2-.9 3.2v9.2h-4.3zm31.7.4c-2.2 0-4-.5-5.5-1.3a8 8 0 01-3.2-3.5c-.7-1.5-1-3-1-4.8 0-2 .3-3.7 1.2-5.1.8-1.5 1.9-2.6 3.3-3.4a10 10 0 015-1.2c2.7 0 4.8.8 6.2 2.4 1.4 1.5 2 3.7 2 6.5v2.3h-13.2c.2 1.6.8 2.8 1.7 3.5.9.7 2 1 3.6 1a10.1 10.1 0 005.4-1.2l1.4 3.2a15.6 15.6 0 01-6.9 1.6zm-5.2-11.1h9c.1-1.7-.3-2.8-1-3.5-.8-.7-1.8-1-3.2-1-2.8 0-4.4 1.5-4.8 4.5zm26.5 11c-2.2 0-4-.4-5.5-1.2a8 8 0 01-3.2-3.5c-.7-1.5-1-3-1-4.8 0-2 .3-3.7 1.1-5.1.8-1.5 2-2.6 3.4-3.4a10 10 0 014.9-1.2c2.8 0 5 .8 6.3 2.4 1.4 1.5 2 3.7 2 6.5v2.3H1339c.3 1.6 1 2.8 1.8 3.5.8.7 2 1 3.6 1a10.1 10.1 0 005.4-1.2l1.4 3.2a15.6 15.6 0 01-6.9 1.6zm-5.3-11h9.2c0-1.7-.4-2.8-1.1-3.5-.8-.7-1.8-1-3.2-1-2.8 0-4.4 1.5-4.9 4.5zm26 11c-1.7 0-3.2-.3-4.6-1.1-1.4-.8-2.5-2-3.3-3.4a10 10 0 01-1.3-5c0-3 .8-5.3 2.4-7a8.6 8.6 0 016.6-2.7c1.6 0 3 .4 4.3 1.2a6 6 0 012.6 2.7l-.2-3.1V93.2h4.2v29.4h-4.1v-3.3c-.5 1-1.4 1.8-2.6 2.6a7.6 7.6 0 01-4 1zm.7-3.6c1.5 0 2.8-.5 3.9-1.6 1-1 1.5-2.4 1.5-4.1v-.3c0-1.1-.2-2.2-.7-3-.5-1-1.1-1.7-2-2.2-.8-.5-1.7-.7-2.7-.7-1.7 0-3 .5-4 1.6a6.4 6.4 0 00-1.3 4.3c0 1.8.4 3.3 1.3 4.4 1 1 2.3 1.6 4 1.6zm24.4 3.7c-2.2 0-4-.5-5.5-1.3a8 8 0 01-3.2-3.5c-.7-1.5-1-3-1-4.8 0-2 .4-3.7 1.2-5.1.8-1.5 2-2.6 3.4-3.4a10 10 0 014.8-1.2c2.9 0 5 .8 6.3 2.4 1.4 1.5 2 3.7 2 6.5v2.3h-13.2c.3 1.6.8 2.8 1.7 3.5.9.7 2 1 3.6 1a10.1 10.1 0 005.4-1.2l1.4 3.2a15.6 15.6 0 01-6.9 1.6zm-5.2-11.1h9c.1-1.7-.2-2.8-1-3.5-.7-.7-1.8-1-3.2-1-2.8 0-4.4 1.5-4.8 4.5zm26 11c-1.7 0-3.2-.3-4.6-1.1-1.4-.8-2.6-2-3.4-3.4a10 10 0 01-1.3-5c0-3 .8-5.3 2.5-7a8.6 8.6 0 016.6-2.7c1.5 0 3 .4 4.2 1.2a6 6 0 012.6 2.7l-.2-3.1V93.2h4.3v29.4h-4.2v-3.3c-.5 1-1.3 1.8-2.5 2.6a7.6 7.6 0 01-4 1zm.7-3.6c1.5 0 2.8-.5 3.8-1.6 1-1 1.6-2.4 1.6-4.1v-.3c0-1.1-.3-2.2-.8-3-.4-1-1.1-1.7-2-2.2-.8-.5-1.7-.7-2.6-.7-1.8 0-3 .5-4 1.6a6.4 6.4 0 00-1.4 4.3c0 1.8.5 3.3 1.4 4.4.9 1 2.2 1.6 4 1.6z" style="white-space:pre"/>
  <g fill="#007fff">
    <path d="M748.2 606.2c-.2 1-2.8 1.4-7.1 1.2a73.4 73.4 0 01-17.5-3.3 97.5 97.5 0 01-42.3-26.7c-2.5-3-4.3-5.5-5.3-7.5s-1.3-3.2-.7-3.7c.5-.4 1.8 0 3.7 1.2 1.9 1.1 4.4 2.9 7.4 5A201.8 201.8 0 00727 596c6.2 2.8 11.6 4.8 15.4 6.5 3.8 1.6 6 2.8 5.8 3.8z"/>
    <path d="M745.8 607.3c.1.9-2 2-5.7 3.6-3.6 1.5-8.7 3.4-14.6 6a192.3 192.3 0 00-39 22.4c-3 2-5.4 3.8-7.2 4.8-1.8 1-3 1.5-3.6 1-.5-.4-.2-1.6.8-3.5s2.8-4.4 5.3-7.3a92 92 0 0140.7-25.5c6.6-2 12.4-2.8 16.6-2.9 4-.1 6.5.4 6.7 1.4z"/>
    <path d="M675.2 572.3c1.1-.5 3.2.8 5.6 3.6 2.5 2.7 5.2 7 7.2 12.6a52.1 52.1 0 011.7 30c-1 4.5-2.4 8.5-3.9 11.9-1.5 3.3-3.1 6-4.6 7.8-1.4 1.8-2.6 2.7-3.4 2.6-.8 0-1-1.1-1-3 0-1.8.3-4.3.7-7.5a117.2 117.2 0 000-39c-1-5.4-2.1-9.9-2.7-13.2-.6-3.3-.7-5.3.4-5.8z"/>
    <path d="M686 607c-3.4-4.6-13.4-6.9-134.2-8-120.9-1.2-186.3-1.8-210.7 2.2-24.4 4-2.2 4 6.7 5 8.8.8 341.5 5.5 338.1.8z"/>
  </g>
  <g color="#000">
    <path fill="#fff" stroke="#ccc" stroke-width=".29585399999999995" d="M303 118.3l195.5-23.7L516.3 241l-195.5 23.7z"/>
    <path fill="#0039a1" d="M313.9 126.7L490 105.4l15.4 127.3L329.3 254z"/>
    <path fill="#008a54" d="M325 219.5c81.8 26.6 116.2-29.3 174.6-35l5.9 48.1L329.3 254z"/>
    <path fill="#f9f9f9" d="M359.9 157.2a13.7 13.7 0 11-27.3 3.3 13.7 13.7 0 0127.3-3.3z"/>
    <g>
      <path fill="#fff" stroke="#ccc" stroke-width=".29585999999999996" d="M290 150.6l181-77.5 58.2 135.7-181 77.5z"/>
      <path fill="#55d3eb" d="M302.8 155.7l163.2-70 50.5 118-163.1 69.9z"/>
      <path fill="#1cbe5e" d="M339.7 241.7c85.8 2.5 103.1-60.8 157.7-82.7l19 44.6-163 70z"/>
      <path fill="#ffff83" d="M355.6 172a13.7 13.7 0 11-25.3 10.9 13.7 13.7 0 0125.3-10.8z"/>
    </g>
  </g>
  <g fill="#007fff">
    <path d="M1557.8 25.3c.3.4-.5 1.6-2.3 3.3a54.1 54.1 0 01-35.2 11.7c-2.2-.2-3.9-.5-5-.9-1.2-.4-1.8-.8-1.8-1.2 0-.4.8-.7 2-1l4.8-.9a184.8 184.8 0 0015.6-3.4c3.5-1 6.8-2.2 9.6-3.3l8.5-3.5c2.2-.9 3.5-1.3 3.8-.8z"/>
    <path d="M1557.3 26.7c.4.3 0 1.6-.8 3.6l-3.4 8.1a106.8 106.8 0 00-6.5 24.1c-.4 2-.6 3.6-1 4.7-.2 1.2-.5 1.8-.9 1.8s-.8-.5-1.1-1.7a42.7 42.7 0 011.2-21.2 50.8 50.8 0 019.3-17.3c1.6-1.7 2.8-2.4 3.2-2.1z"/>
    <path d="M1515.9 40.6c.2-.6 1.5-1 3.6-.8 2 .2 4.8.8 7.7 2.2a29 29 0 0112.5 11.1 32.4 32.4 0 014.4 11c.1 1.3 0 2.1-.3 2.4-.3.3-.9 0-1.6-.7l-2.6-3.3a113.5 113.5 0 00-9-10c-2.1-2.1-4.3-3.8-6.4-5.3l-6.2-4.1c-1.5-1-2.4-1.9-2.1-2.5z"/>
    <path d="M1533.7 50c-3.1-.4-8 2.6-55.8 49.5-47.9 47-73.8 72.5-81.8 83.6-8 11.2.7 2.5 4.6-.6 3.8-3.2 136.1-132 133-132.4z"/>
  </g>
</svg>
